<?xml version="1.0" encoding="UTF-8"?><svg id="Capa_1" xmlns="http://www.w3.org/2000/svg" viewBox="0 0 192 192"><defs><style>.cls-1{fill:#f8ebd2;}.cls-1,.cls-2{stroke-width:0px;}.cls-2{fill:#17120d;}</style></defs><rect class="cls-2" x="-.5" y="-.5" width="193" height="193"/><path class="cls-1" d="m165.77,86.78c.11.62.45,1.31.3,1.86-.68,2.43-2.4,3.98-4.78,4.61-1.16.31-1.63.97-1.98,1.96-1.09,3.06-3,5.41-6.08,6.64-4.32,1.72-7.63.66-10.44-3.27-1.04.91-1.97,2.03-3.16,2.68-1.23.68-2.68,1.2-4.07,1.28-3.22.2-5.08-1.8-5.24-5.06-.14-2.91.94-5.5,1.94-8.12.37-.99.83-1.94,1.29-3.03-.97-.07-1.86-.13-2.88-.21-.57,1.46-1.14,3.03-1.79,4.58-1.67,3.98-3.68,7.72-7.59,9.99-3,1.74-6.23,2.31-9.65,1.65-2.33-.44-4.02-1.79-5.21-3.85-.98.83-1.85,1.65-2.82,2.35-.74.53-1.55,1.02-2.4,1.31-3.19,1.1-6.01-.86-6.2-4.24-.02-.32-.03-.64-.05-1.01-.96,1.2-1.82,2.39-2.81,3.45-1.28,1.36-2.98,2.03-4.81,2.12-2.98.14-4.23-2.78-4.16-5.37,0-.33.12-.65-.09-1.07-.14.35-.29.7-.43,1.06-1.24,3.2-4.02,5.27-7.14,5.29-2.59.02-4.35-1.6-5.01-4.36-.62-2.61.06-5.1.41-7.64.25-1.82.42-3.66.83-5.44.17-.73.75-1.69,1.37-1.91,1.23-.45,2.62-.57,3.94-.6,1.1-.03,1.47.76,1.29,1.82-.52,2.95-1.06,5.9-1.52,8.86-.17,1.1-.25,2.24-.13,3.33.08.72.49,1.87.95,1.97.74.17,2.05-.11,2.39-.65,1.01-1.61,1.9-3.37,2.39-5.19.7-2.65.97-5.42,1.52-8.12.1-.51.56-1.22,1-1.35,1.27-.38,2.6-.65,3.92-.71,1.08-.05,1.68.69,1.49,1.84-.43,2.67-.96,5.33-1.3,8.02-.2,1.57-.27,3.19-.14,4.77.13,1.6,1.37,2.19,2.67,1.26.81-.59,1.51-1.51,1.94-2.43,1.58-3.38,2.12-7.02,2.33-10.7.07-1.23.47-1.91,1.59-2.21.98-.27,1.95-.64,2.94-.72,1.75-.14,2.48.82,2.12,2.54-.6,2.84-1.22,5.67-1.73,8.52-.2,1.13-.22,2.32-.17,3.48.07,1.43,1,2.06,2.38,1.76,1.51-.33,2.42-1.7,2.33-3.19-.44-6.91,3.54-13.12,10.02-14.36,3-.57,5.6.2,6.66,2.02,1.35,2.31.83,5.41-1.24,7.78-2.27,2.59-5.12,4.07-8.47,4.65.69,3.64,3.39,3.77,6.31,3.27,2.49-.43,4.35-2.04,5.55-4.14,1.61-2.83,2.94-5.82,4.4-8.76-3.03-1.23-3.9-2.36-3.76-4.54.11-1.83,1.75-3.37,3.57-3.37,1.83,0,3.24,1.42,3.16,3.41-.08,2.09-.2,2.22,2.32,2.03,1.48-.11,2.95-.47,4.39-.86,1.49-.4,2.38.13,2.13,1.64-.21,1.27-.7,2.5-1.16,3.72-1.14,3.01-2.01,6.06-1.86,9.32.07,1.58,1,2.16,2.43,1.41,1.51-.8,2.42-1.89,2.28-3.81-.4-5.67,3.33-10.62,7.69-12.41,4.65-1.9,9.34-.06,10.47,4.31.38,1.47.3,3.05.42,4.58,1.78-.18,2.22-.58,4.63-4.31.17-.03.34-.06.51-.09Zm-12.66-3.47c-.51.34-.92.56-1.26.85-2.73,2.38-4.53,9.79-3.21,13.12.67,1.68,2.28,2.48,3.99,1.91,2.66-.89,3.72-3.14,4.7-5.47-5.49-2.79-6.01-6.31-4.22-10.41Zm-41.37,9.94c3.97-1.66,6.21-4.54,6-7.84-.05-.8-.72-1.56-1.11-2.33-.8.42-1.83.65-2.36,1.3-2.04,2.52-2.26,5.64-2.54,8.88Zm46.31-2.04c-.04-2.11.33-4.1-.98-5.87-2.01,1.92-1.62,4.42.98,5.87Z"/><path class="cls-1" d="m50.84,111.86c4.13,3.67,8.17,7.37,12.33,10.93,2.14,1.83,4.58,3.34,7.39,3.86,3.78.69,7.4-.32,8.48-4.15.33-1.18.19-2.5.24-3.75.03-.63.08-1.28-.02-1.89-.21-1.37.46-1.83,1.69-1.89,2.84-.13,3.34.87,2.76,3.12-1.6,6.3-7.45,12.58-15.99,11.18-7.04-1.16-12.98-4.29-17.97-9.34-1.3-1.31-2.7-2.52-4.01-3.83-.59-.59-1.13-.64-1.92-.39-2.63.81-5.29,1.64-8.11.89-1.47-.39-2.63-1.16-2.8-2.77-.18-1.7.4-3.16,1.93-4.11,2.26-1.4,4.78-1.09,7.23-.91,1.28.09,2.59.44,3.79.93.98.4,1.58.17,2.28-.47,4.35-3.9,6.98-8.88,8.95-14.26,2.33-6.38,3.18-12.96,2.34-19.72-.33-2.63-1.22-5.07-2.87-7.19-2.92-3.75-8.77-4-12.72-.54-4.4,3.85-6.74,8.91-8.29,14.38-1.4,4.92-1.68,9.9-.35,14.92,1.47,5.57,6.34,8.18,11.67,5.68.37-.17,1.12-.21,1.28,0,.31.4.6,1.2.39,1.53-.43.68-1.09,1.42-1.81,1.69-4.91,1.82-9.58.98-13.8-1.92-4.15-2.86-6.15-7.08-6.78-12.02-.86-6.82.52-13.14,4.39-18.8,5-7.31,12.13-10.47,20.88-10.51,11.23-.06,16.35,9.11,16.82,16.52.62,9.77-2.08,18.45-8.71,25.66-2.34,2.54-5.35,4.46-8.05,6.67-.25.21-.52.4-.64.49Zm-7.72,1.55c-2.14-1.42-4.1-2.29-6.37-1.51-.56.19-.96.83-1.44,1.26.48.48.88,1.2,1.46,1.39,2.16.7,4.14,0,6.35-1.14Z"/><path class="cls-1" d="m105.84,74.11c0,2.69-2.28,4.87-5.05,4.85-2.17-.02-3.99-1.91-3.97-4.13.02-2.38,2.6-4.65,5.25-4.63,2.18.02,3.78,1.67,3.77,3.9Z"/></svg>